<?xml version="1.0" encoding="utf-8"?>
<!-- Generator: Adobe Illustrator 24.3.0, SVG Export Plug-In . SVG Version: 6.00 Build 0)  -->
<svg version="1.1" id="Layer_1" xmlns="http://www.w3.org/2000/svg" xmlns:xlink="http://www.w3.org/1999/xlink" x="0px" y="0px"
	 viewBox="0 0 595.28 841.89" style="enable-background:new 0 0 595.28 841.89;" xml:space="preserve">
<g>
	<path d="M334.49,212.15c1.72-5.08,3.52-10.13,5.14-15.25c2.64-8.31,5.2-16.64,7.72-25c2.7-8.98,5.34-17.98,7.95-26.99
		c2.6-8.96,5.13-17.94,7.72-26.91c2.19-7.6,4.4-15.2,6.64-22.78c1.96-6.64,3.94-13.28,6.04-19.87c0.25-0.79,1.31-1.69,2.04-1.73
		c0.74-0.05,1.83,0.71,2.23,1.46c1.55,2.88,2.37,6.05,2.26,9.46c-0.26,8.17-0.45,16.35-0.79,24.51c-0.67,15.68-1.7,31.34-2.06,47.03
		c-0.36,15.87,0.8,31.71,2.62,47.45c0.92,7.98,2.19,15.92,5.03,23.42c2.2,5.8,4.84,11.32,8.98,15.71c1.83,1.94,4.04,3.47,6.16,5.05
		c3.71,2.75,7.86,4.27,12.22,5.25c2.26,0.5,4.46,1.27,6.63,2.29c-3.18-0.69-6.35-1.38-9.53-2.08c-0.68-0.15-1.35-0.37-2.03-0.52
		c-4.41-0.96-8.12-3.5-11.72-6.3c-8.07-6.27-11.95-15.62-14.86-25.5c-3.49-11.8-4.71-24.12-6.11-36.39
		c-3.05-26.71-2.44-53.5-1.81-80.3c0.13-5.69,0.4-11.37,0.39-17.16c-0.4,1.22-0.83,2.43-1.19,3.66
		c-6.05,20.74-9.89,42.09-14.44,63.25c-3.4,15.81-6.85,31.62-10.58,47.34c-1.79,7.54-4.15,14.93-7.41,21.9
		c-1.29,2.77-2.95,5.13-5.43,6.73c-2,1.29-4.56,0.24-5.33-2.53c-0.41-1.47-0.42-3.15-0.34-4.71c0.14-2.46,0.73-4.89,0.76-7.34
		c0.3-20.94,0.6-41.89,0.75-62.84c0.13-17.85,0.22-35.71,0.01-53.56c-0.1-8.55-0.88-17.09-1.45-25.62
		c-0.12-1.82-0.67-3.61-1.02-5.41c-0.18-0.05-0.37-0.11-0.55-0.16c-1.15,1.74-2.49,3.36-3.42,5.24
		c-5.19,10.41-8.43,21.69-11.83,32.9c-2.9,9.55-5.82,19.09-8.55,28.69c-3.37,11.82-6.58,23.7-8.79,35.86
		c-2.37,13.08-4.53,26.22-6.89,39.31c-1.04,5.77-2.27,11.51-3.56,17.22c-0.78,3.46-4.12,5.01-6.32,3.04
		c-1.48-1.33-1.98-3.29-2.29-5.37c-0.66-4.47-0.03-8.86,0.79-13.15c1.97-10.29,4.04-20.58,6.45-30.75
		c1.79-7.55,4.32-14.88,6.24-22.4c0.83-3.26,1.1-6.73,1.4-10.13c1.1-12.33,1.56-24.7,0.94-37.09c-0.57-11.26-1.55-22.45-4.41-33.34
		c-1.04-3.98-2.4-7.82-4.74-11.09c-2.16-3.03-5.03-3.98-8.81-1.94c-2.75,1.48-5.21,3.33-7.52,5.45
		c-5.22,4.78-9.78,10.18-12.53,17.19c-0.22,0.57-0.36,1.19-0.67,1.75c-0.46-2.77,0.09-5.43,0.78-8.03
		c1.81-6.81,5.09-12.67,9.31-17.99c3.17-4,6.85-7.13,11.22-9.33c2.72-1.37,8.45,0.04,10.76,2.25c5.98,5.75,8.09,13.59,9.57,21.64
		c2.76,14.98,3,30.17,2.24,45.39c-0.23,4.58-0.64,9.14-0.97,13.71c-0.04,0.58-0.07,1.17,0.14,1.81c1.33-3.59,2.65-7.17,3.98-10.75
		c2.57-6.91,5.15-13.81,7.73-20.72c2.56-6.85,5.06-13.74,7.73-20.54c2.21-5.64,4.63-11.18,6.95-16.77c1.01-2.44,2-4.89,2.99-7.35
		c1.33-3.31,4.31-4.84,6.92-3.3c1.92,1.12,2.88,3.27,3.65,5.42c1.59,4.43,2.11,9.13,2.03,13.81c-0.18,11.1-0.56,22.2-1.04,33.3
		c-0.39,9.11-1.02,18.2-1.59,27.29c-0.83,13.34-1.84,26.67-2.52,40.01c-0.48,9.48-0.57,18.99-0.77,28.49
		c-0.03,1.53,0.26,3.06,0.4,4.59C334.23,212.08,334.36,212.12,334.49,212.15z"/>
	<path d="M251.52,131.45c-1.27-13.67-2.99-27.21-6.16-40.48c-2.37-9.92-5.27-19.63-9.6-28.72c-2.03-4.27-4.66-8.15-8.27-11
		c-2.86-2.26-6.11-3.53-9.53-2c-2.43,1.09-4.94,2.49-6.79,4.47c-2.59,2.77-4.83,6.05-6.81,9.4c-3.69,6.25-5.45,13.31-5.93,20.72
		c-0.6,9.18,0.6,18.1,4.28,26.4c1.42,3.19,3.51,6.01,5.28,8.96c0,0-0.35,0.12-0.59-0.02c-5.76-3.26-9.51-8.59-12.15-14.92
		c-3.1-7.42-4.51-15.28-4.33-23.45c0.23-10.43,2.9-20.01,8.28-28.67c3.33-5.37,7.2-10.13,12.05-13.77c2.52-1.89,5.42-2.97,8.48-3.76
		c3.03-0.78,5.71,0.07,8.38,1.02c3.73,1.32,6.68,4.14,9.28,7.33c7.08,8.71,10.41,19.44,13.27,30.42c4.21,16.17,6,32.74,6.72,49.5
		c0.13,3.07,0.34,6.14,0.51,9.15c3.64,0.5,7.15,0.7,10.54,1.51c4.96,1.19,9.86,2.77,14.75,4.3c1.74,0.55,3.41,1.41,5.09,2.18
		c0.47,0.21,0.86,0.63,1.18,1.2c-2.54-0.67-5.06-1.41-7.62-1.99c-4.17-0.96-8.34-1.93-12.55-2.7c-3.7-0.67-7.43-1.08-11.39-1.63
		c0,1.07-0.01,1.66,0,2.25c0.14,11.94,0.09,23.87-0.88,35.78c-1.25,15.21-3.35,30.26-7.67,44.79c-2.28,7.66-4.98,15.19-7.88,22.6
		c-2.54,6.5-6.01,12.48-10.4,17.68c-2.76,3.27-5.83,6.12-9.69,7.92c-4.15,1.94-8.33,2.26-12.5,0.82c-3.88-1.34-7.14-3.91-9.97-7.27
		c-7.23-8.57-10.11-19.13-11.54-30.35c-2-15.7-0.05-30.91,4.91-45.7c2.84-8.48,6.65-16.43,11.45-23.75
		c2.87-4.38,6.12-8.42,9.83-11.99c3.66-3.52,7.53-6.62,11.86-9.08c3.22-1.84,6.48-3.5,10.03-4.24c4.03-0.84,8.1-1.48,12.15-2.21
		C248.88,131.92,250.14,131.7,251.52,131.45z M252.18,135.03c-3.56,0.57-6.58,1.03-9.61,1.54c-4.42,0.74-8.63,2.23-12.7,4.3
		c-4.48,2.27-8.59,5.13-12.09,8.94c-2.91,3.17-5.84,6.4-8.33,9.96c-3.86,5.52-6.8,11.68-9.24,18.14
		c-4.45,11.8-6.94,24.04-6.67,36.87c0.25,12.18,2.16,23.9,8.43,34.27c2.41,3.98,5.52,7.23,9.55,8.95c4.06,1.73,8.15,1.51,12.25-0.69
		c4.44-2.38,7.72-6.1,10.58-10.28c3.35-4.91,5.83-10.42,7.96-16.12c4.34-11.57,7.27-23.59,8.67-35.98
		c1.05-9.3,1.81-18.69,1.97-28.06C253.13,156.45,252.48,146.02,252.18,135.03z"/>
</g>
</svg>
