<?xml version="1.0" encoding="utf-8"?>
<!-- Generator: Adobe Illustrator 24.3.0, SVG Export Plug-In . SVG Version: 6.00 Build 0)  -->
<svg version="1.1" id="Layer_1" xmlns="http://www.w3.org/2000/svg" xmlns:xlink="http://www.w3.org/1999/xlink" x="0px" y="0px"
	 viewBox="0 0 1920 1080" style="enable-background:new 0 0 1920 1080;" xml:space="preserve">
<g>
	<path d="M1056.87,558.8c4.4-12.11,8.99-24.14,13.15-36.34c6.74-19.8,13.3-39.67,19.72-59.58c6.91-21.39,13.64-42.85,20.32-64.31
		c6.65-21.35,13.11-42.77,19.72-64.13c5.6-18.12,11.24-36.22,16.96-54.3c5.01-15.83,10.06-31.65,15.43-47.34
		c0.64-1.87,3.36-4.03,5.21-4.13c1.88-0.11,4.67,1.68,5.7,3.48c3.96,6.87,6.05,14.42,5.77,22.54c-0.67,19.48-1.14,38.96-2.02,58.42
		c-1.7,37.36-4.36,74.7-5.28,112.08c-0.93,37.82,2.06,75.56,6.7,113.08c2.35,19.01,5.6,37.94,12.86,55.82
		c5.62,13.82,12.37,26.99,22.95,37.45c4.68,4.63,10.32,8.27,15.75,12.03c9.48,6.56,20.1,10.18,31.23,12.5
		c5.76,1.2,11.41,3.03,16.96,5.46c-8.12-1.65-16.24-3.28-24.36-4.95c-1.74-0.36-3.45-0.88-5.2-1.24
		c-11.27-2.29-20.75-8.35-29.96-15.02c-20.63-14.94-30.53-37.23-37.99-60.77c-8.91-28.13-12.05-57.47-15.63-86.72
		c-7.8-63.65-6.25-127.51-4.63-191.38c0.34-13.55,1.02-27.09,1-40.91c-1.02,2.9-2.13,5.78-3.05,8.72
		c-15.46,49.43-25.27,100.32-36.9,150.75c-8.69,37.69-17.51,75.35-27.06,112.81c-4.58,17.97-10.62,35.58-18.95,52.2
		c-3.31,6.6-7.54,12.23-13.87,16.04c-5.12,3.08-11.65,0.58-13.63-6.02c-1.05-3.51-1.08-7.5-0.86-11.22
		c0.36-5.85,1.85-11.66,1.94-17.5c0.78-49.92,1.53-99.84,1.92-149.76c0.33-42.55,0.56-85.1,0.03-127.64
		c-0.25-20.37-2.26-40.73-3.72-61.07c-0.31-4.34-1.71-8.6-2.6-12.9c-0.47-0.13-0.94-0.26-1.41-0.39c-2.94,4.14-6.36,8.02-8.75,12.48
		c-13.27,24.81-21.55,51.7-30.24,78.41c-7.4,22.75-14.87,45.49-21.86,68.39c-8.6,28.17-16.81,56.48-22.46,85.47
		c-6.07,31.18-11.57,62.49-17.6,93.68c-2.66,13.76-5.8,27.44-9.11,41.05c-2,8.24-10.53,11.95-16.15,7.25
		c-3.79-3.18-5.06-7.84-5.85-12.79c-1.69-10.65-0.08-21.12,2.03-31.35c5.04-24.53,10.32-49.04,16.49-73.29
		c4.57-17.99,11.03-35.47,15.94-53.38c2.13-7.77,2.8-16.04,3.58-24.13c2.81-29.4,4-58.86,2.4-88.39
		c-1.45-26.83-3.96-53.52-11.27-79.46c-2.67-9.47-6.14-18.64-12.11-26.44c-5.52-7.21-12.87-9.47-22.52-4.63
		c-7.04,3.53-13.32,7.95-19.23,12.98c-13.35,11.38-25.01,24.27-32.02,40.97c-0.57,1.36-0.91,2.83-1.71,4.17
		c-1.19-6.6,0.23-12.94,2-19.14c4.63-16.22,13.02-30.19,23.79-42.87c8.1-9.54,17.51-16.99,28.68-22.24
		c6.95-3.27,21.61,0.09,27.5,5.37c15.29,13.71,20.67,32.38,24.47,51.58c7.06,35.71,7.66,71.9,5.72,108.17
		c-0.59,10.91-1.64,21.79-2.47,32.68c-0.11,1.39-0.17,2.79,0.36,4.32c3.39-8.54,6.76-17.09,10.17-25.63
		c6.57-16.46,13.15-32.92,19.75-49.37c6.55-16.34,12.95-32.75,19.76-48.96c5.65-13.44,11.83-26.65,17.75-39.98
		c2.59-5.82,5.12-11.66,7.65-17.51c3.41-7.89,11.01-11.53,17.7-7.87c4.91,2.68,7.35,7.78,9.33,12.92c4.07,10.56,5.4,21.76,5.2,32.91
		c-0.47,26.46-1.43,52.92-2.65,79.36c-1,21.7-2.61,43.37-4.06,65.05c-2.13,31.79-4.71,63.55-6.45,95.36
		c-1.24,22.6-1.46,45.27-1.98,67.91c-0.08,3.64,0.67,7.3,1.03,10.94C1056.21,558.62,1056.54,558.71,1056.87,558.8z"/>
	<path d="M844.79,366.47c-3.26-32.59-7.65-64.84-15.75-96.47c-6.05-23.65-13.47-46.78-24.53-68.45
		c-5.2-10.18-11.92-19.42-21.13-26.22c-7.31-5.4-15.62-8.42-24.35-4.77c-6.2,2.59-12.62,5.94-17.35,10.65
		c-6.62,6.61-12.35,14.41-17.42,22.41c-9.43,14.9-13.92,31.73-15.15,49.38c-1.52,21.88,1.53,43.14,10.94,62.92
		c3.62,7.6,8.98,14.32,13.5,21.36c-0.01,0-0.9,0.27-1.5-0.04c-14.72-7.77-24.3-20.46-31.05-35.57
		c-7.91-17.69-11.54-36.43-11.07-55.9c0.6-24.87,7.42-47.68,21.17-68.33c8.51-12.79,18.4-24.15,30.8-32.82
		c6.44-4.5,13.86-7.09,21.68-8.96c7.75-1.85,14.6,0.17,21.41,2.42c9.54,3.15,17.07,9.86,23.71,17.47
		c18.1,20.76,26.61,46.34,33.92,72.5c10.77,38.54,15.35,78.04,17.17,117.97c0.33,7.33,0.87,14.64,1.3,21.81
		c9.31,1.19,18.29,1.66,26.95,3.6c12.69,2.84,25.19,6.6,37.7,10.25c4.46,1.3,8.72,3.36,13.02,5.2c1.19,0.51,2.19,1.51,3.02,2.85
		c-6.49-1.6-12.94-3.35-19.47-4.75c-10.66-2.29-21.33-4.6-32.07-6.43c-9.45-1.61-19-2.57-29.1-3.89c0,2.56-0.02,3.96,0,5.35
		c0.36,28.46,0.24,56.9-2.26,85.28c-3.19,36.25-8.57,72.11-19.61,106.74c-5.82,18.26-12.73,36.21-20.13,53.86
		c-6.5,15.49-15.37,29.75-26.59,42.13c-7.05,7.78-14.9,14.59-24.76,18.88c-10.61,4.62-21.29,5.38-31.96,1.96
		c-9.93-3.19-18.26-9.33-25.5-17.32c-18.49-20.43-25.85-45.6-29.51-72.34c-5.12-37.41-0.13-73.68,12.54-108.92
		c7.27-20.22,17-39.17,29.27-56.61c7.34-10.43,15.65-20.06,25.13-28.58c9.34-8.39,19.24-15.77,30.3-21.65
		c8.24-4.37,16.55-8.33,25.65-10.09c10.31-1.99,20.69-3.53,31.05-5.27C838.03,367.57,841.27,367.05,844.79,366.47z M846.47,374.99
		c-9.09,1.36-16.83,2.47-24.55,3.67c-11.3,1.76-22.05,5.32-32.46,10.24c-11.45,5.41-21.96,12.22-30.91,21.3
		c-7.45,7.56-14.92,15.24-21.29,23.74c-9.87,13.15-17.39,27.83-23.62,43.23c-11.39,28.13-17.73,57.29-17.05,87.86
		c0.64,29.03,5.53,56.96,21.56,81.68c6.15,9.49,14.12,17.23,24.42,21.34c10.38,4.13,20.84,3.59,31.31-1.64
		c11.35-5.67,19.73-14.53,27.03-24.5c8.57-11.7,14.89-24.84,20.35-38.43c11.09-27.58,18.59-56.21,22.17-85.75
		c2.68-22.17,4.62-44.55,5.02-66.88C848.9,426.04,847.24,401.18,846.47,374.99z"/>
</g>
</svg>
